<?xml version="1.0" encoding="UTF-8"?>
<svg width="181px" height="32px" viewBox="0 0 181 32" version="1.1" xmlns="http://www.w3.org/2000/svg" xmlns:xlink="http://www.w3.org/1999/xlink">
    <!-- Generator: Sketch 63.1 (92452) - https://sketch.com -->
    <title>Logo Tenoco</title>
    <desc>Created with Sketch.</desc>
    <g id="Logo-Tenoco" stroke="none" stroke-width="1" fill="none" fill-rule="evenodd">
        <path d="M17.6498741,31.4319527 L17.6498741,6.43786982 L26.2166247,6.43786982 L26.2166247,0.568047337 L2,0.568047337 L2,6.43786982 L10.5667506,6.43786982 L10.5667506,31.4319527 L17.6498741,31.4319527 Z M51.1032746,31.4319527 L51.1032746,25.5621302 L38.1335013,25.5621302 L38.1335013,18.4615385 L48.7581864,18.4615385 L48.7581864,12.6390533 L38.1335013,12.6390533 L38.1335013,6.43786982 L50.6246851,6.43786982 L50.6246851,0.568047337 L31.0982368,0.568047337 L31.0982368,31.4319527 L51.1032746,31.4319527 Z M64.0251889,31.4319527 L64.0251889,20.4970414 C64.0251889,18.6666667 63.9214945,16.7731755 63.7141058,14.816568 C63.506717,12.8599606 63.3232578,11.0295858 63.163728,9.32544379 L63.163728,9.32544379 L63.3551637,9.32544379 L66.418136,16.0473373 L74.5541562,31.4319527 L81.7808564,31.4319527 L81.7808564,0.568047337 L75.0806045,0.568047337 L75.0806045,11.4556213 C75.0806045,13.2859961 75.1842989,15.2110454 75.3916877,17.2307692 C75.5990764,19.2504931 75.7825357,21.0808679 75.9420655,22.7218935 L75.9420655,22.7218935 L75.7506297,22.7218935 L72.6876574,15.9053254 L64.5516373,0.568047337 L57.324937,0.568047337 L57.324937,31.4319527 L64.0251889,31.4319527 Z M101.833753,32 C103.939547,32 105.861881,31.6291913 107.600756,30.887574 C109.339631,30.1459566 110.831234,29.0808679 112.075567,27.6923077 C113.319899,26.3037475 114.285055,24.6153846 114.971033,22.6272189 C115.657011,20.6390533 116,18.382643 116,15.8579882 C116,13.3648915 115.657011,11.1321499 114.971033,9.15976331 C114.285055,7.18737673 113.319899,5.52268245 112.075567,4.16568047 C110.831234,2.8086785 109.339631,1.77514793 107.600756,1.06508876 C105.861881,0.355029586 103.939547,0 101.833753,0 C99.7279597,0 97.8056255,0.355029586 96.0667506,1.06508876 C94.3278757,1.77514793 92.836272,2.80078895 91.5919395,4.14201183 C90.3476071,5.48323471 89.3824517,7.14003945 88.6964736,9.11242604 C88.0104954,11.0848126 87.6675063,13.3333333 87.6675063,15.8579882 C87.6675063,18.382643 88.0104954,20.6390533 88.6964736,22.6272189 C89.3824517,24.6153846 90.3476071,26.3037475 91.5919395,27.6923077 C92.836272,29.0808679 94.3278757,30.1459566 96.0667506,30.887574 C97.8056255,31.6291913 99.7279597,32 101.833753,32 Z M101.833753,25.9881657 C99.6960537,25.9881657 98.0050378,25.0808679 96.7607053,23.2662722 C95.5163728,21.4516765 94.8942065,18.9822485 94.8942065,15.8579882 C94.8942065,12.765286 95.5163728,10.3510848 96.7607053,8.61538462 C98.0050378,6.87968442 99.6960537,6.01183432 101.833753,6.01183432 C103.971453,6.01183432 105.662469,6.87968442 106.906801,8.61538462 C108.151134,10.3510848 108.7733,12.765286 108.7733,15.8579882 C108.7733,18.9822485 108.151134,21.4516765 106.906801,23.2662722 C105.662469,25.0808679 103.971453,25.9881657 101.833753,25.9881657 Z" id="TENO" fill="#000000" fill-rule="nonzero"></path>
        <path d="M137.095233,9.76996262e-14 C140.618906,9.76996262e-14 143.875932,1.1442439 146.516601,3.0822271 C145.27785,4.67028525 144.262917,6.44148147 143.518159,8.34846263 C141.783755,6.88301365 139.54238,6 137.095233,6 C131.584909,6 127.117908,10.4771525 127.117908,16 C127.117908,21.5228475 131.584909,26 137.095233,26 C139.54238,26 141.783755,25.1169863 143.519483,23.6515161 C144.262917,25.5585185 145.27785,27.3297147 146.515771,28.9178287 C143.875932,30.8557561 140.618906,32 137.095233,32 C129.30206,32 122.813174,26.4029883 121.41182,19.000806 L118.000559,19.0006221 C118.10836,18.0366883 118.16226,17.0312113 118.16226,15.984191 C118.16226,14.9483725 118.108163,13.9530227 117.999968,12.9981415 L121.41182,12.999194 C122.813174,5.59701169 129.30206,9.76996262e-14 137.095233,9.76996262e-14 Z M163.036279,-1.42108547e-14 C171.852799,-1.42108547e-14 179,7.163444 179,16 C179,24.836556 171.852799,32 163.036279,32 C155.961924,32 149.962346,27.3878732 147.867516,21.0000207 L154.393735,20.9999871 C156.11886,23.9890011 159.343255,26 163.036279,26 C168.546604,26 173.013605,21.5228475 173.013605,16 C173.013605,10.4771525 168.546604,6 163.036279,6 C159.343666,6 156.119578,8.01055086 154.394312,10.9990139 L147.867844,10.9989782 C149.962973,4.61164496 155.962294,-1.42108547e-14 163.036279,-1.42108547e-14 Z M137.095233,10 C139.310648,10 141.244987,11.206164 142.280199,12.999037 L155.634499,13.0002922 C155.634633,12.9999622 155.634766,12.9996322 155.634899,12.9993022 L170.437659,12.9993022 C170.811997,13.9259229 171.01814,14.9388332 171.01814,16 C171.01814,17.0608892 170.812105,18.0735471 170.437953,18.9999705 L163.036,18.999 L163.036279,19 L142.280778,18.9999606 C141.245708,20.7933864 139.311061,22 137.095233,22 C133.789038,22 131.108838,19.3137085 131.108838,16 C131.108838,12.6862915 133.789038,10 137.095233,10 Z" id="Combined-Shape" fill="#000000"></path>
    </g>
</svg>